<svg width="227" height="70" viewBox="0 0 227 70" fill="none" xmlns="http://www.w3.org/2000/svg">
<path d="M57.672 46.528V13.888H64.008V21.568H64.328V46.528H57.672ZM80.84 46.528V25.536C80.84 23.2747 80.264 21.5893 79.112 20.48C78.0027 19.3707 76.3387 18.816 74.12 18.816C72.2 18.816 70.4933 19.2427 69 20.096C67.5493 20.9493 66.3973 22.1227 65.544 23.616C64.7333 25.1093 64.328 26.88 64.328 28.928L63.496 21.12C64.5627 18.688 66.2053 16.768 68.424 15.36C70.6427 13.952 73.224 13.248 76.168 13.248C79.6667 13.248 82.4187 14.2293 84.424 16.192C86.4293 18.1547 87.432 20.7573 87.432 24V46.528H80.84ZM96.3595 46.528V13.888H103.016V46.528H96.3595ZM96.0395 7.488V-3.8147e-06H103.4V7.488H96.0395ZM125.998 47.168C122.2 47.168 119.406 46.2933 117.614 44.544C115.864 42.752 114.99 40.128 114.99 36.672V6.4L121.582 3.904V36.736C121.582 38.4427 122.03 39.7013 122.926 40.512C123.822 41.3227 125.272 41.728 127.278 41.728C128.046 41.728 128.728 41.664 129.326 41.536C129.923 41.408 130.435 41.2587 130.862 41.088V46.464C130.392 46.6773 129.731 46.848 128.878 46.976C128.024 47.104 127.064 47.168 125.998 47.168ZM108.462 19.2V13.888H130.862V19.2H108.462ZM137.172 46.528V13.888H143.508V22.016H143.828V46.528H137.172ZM143.828 29.504L142.996 21.76C143.764 18.9867 145.087 16.8747 146.964 15.424C148.841 13.9733 151.081 13.248 153.684 13.248C154.665 13.248 155.348 13.3333 155.732 13.504V19.776C155.519 19.6907 155.22 19.648 154.836 19.648C154.452 19.6053 153.983 19.584 153.428 19.584C150.228 19.584 147.817 20.416 146.196 22.08C144.617 23.744 143.828 26.2187 143.828 29.504ZM175.693 47.168C172.365 47.168 169.442 46.4427 166.925 44.992C164.407 43.4987 162.445 41.472 161.036 38.912C159.628 36.3093 158.924 33.3653 158.924 30.08C158.924 26.752 159.628 23.8293 161.036 21.312C162.487 18.7947 164.45 16.832 166.925 15.424C169.442 13.9733 172.365 13.248 175.693 13.248C179.063 13.248 182.007 13.9733 184.525 15.424C187.042 16.832 188.983 18.7947 190.349 21.312C191.757 23.8293 192.461 26.752 192.461 30.08C192.461 33.3653 191.757 36.3093 190.349 38.912C188.983 41.472 187.042 43.4987 184.525 44.992C182.007 46.4427 179.063 47.168 175.693 47.168ZM175.693 41.728C177.698 41.728 179.426 41.2373 180.877 40.256C182.37 39.2747 183.543 37.9093 184.397 36.16C185.25 34.4107 185.677 32.3627 185.677 30.016C185.677 26.5173 184.738 23.7653 182.861 21.76C181.026 19.712 178.637 18.688 175.693 18.688C172.791 18.688 170.402 19.712 168.525 21.76C166.69 23.808 165.773 26.56 165.773 30.016C165.773 32.3627 166.178 34.4107 166.989 36.16C167.842 37.9093 169.015 39.2747 170.509 40.256C172.045 41.2373 173.773 41.728 175.693 41.728Z" fill="black"/>
<g clip-path="url(#clip0_52_3)">
<path d="M43.439 23.5226C44.9247 23.5226 46.1452 24.731 45.9729 26.2066C45.7256 28.3229 45.1867 30.3994 44.3681 32.3757C43.2055 35.1826 41.5014 37.7329 39.3532 39.8811C37.2049 42.0294 34.6546 43.7334 31.8478 44.8961C29.8712 45.7147 27.7949 46.2536 25.6786 46.5008C24.203 46.6733 22.9945 45.4527 22.9945 43.9671V26.2127C22.9945 24.727 24.199 23.5226 25.6846 23.5226H43.439Z" fill="#FF0000"/>
<path d="M2.55011 23.5226C1.06443 23.5226 -0.156092 22.3141 0.0162753 20.8385C0.263479 18.7222 0.802384 16.6459 1.62106 14.6694C2.78368 11.8626 4.48776 9.31222 6.63599 7.16398C8.78423 5.01576 11.3346 3.31167 14.1414 2.14906C16.1179 1.33038 18.1942 0.791478 20.3105 0.544275C21.7861 0.371908 22.9946 1.59243 22.9946 3.07811L22.9945 20.8326C22.9945 22.3181 21.7901 23.5226 20.3044 23.5226H2.55011Z" fill="#FF7700"/>
</g>
<path opacity="0.5" d="M62.312 65.672C61.544 65.672 60.8987 65.4853 60.376 65.112C59.8533 64.7387 59.496 64.2107 59.304 63.528L59.48 63.496V65.528H58.28V54.008H59.56V59.272L59.384 59.224C59.5867 58.5947 59.9547 58.104 60.488 57.752C61.032 57.3893 61.6773 57.208 62.424 57.208C63.1493 57.208 63.7787 57.384 64.312 57.736C64.856 58.088 65.2773 58.5787 65.576 59.208C65.8747 59.8373 66.024 60.5733 66.024 61.416C66.024 62.2693 65.8693 63.016 65.56 63.656C65.2507 64.296 64.8187 64.792 64.264 65.144C63.7093 65.496 63.0587 65.672 62.312 65.672ZM62.12 64.552C62.9307 64.552 63.5653 64.2747 64.024 63.72C64.4827 63.1547 64.712 62.3867 64.712 61.416C64.712 60.456 64.4827 59.704 64.024 59.16C63.5653 58.6053 62.9307 58.328 62.12 58.328C61.3093 58.328 60.6693 58.6107 60.2 59.176C59.7307 59.7307 59.496 60.4933 59.496 61.464C59.496 62.4133 59.7307 63.1653 60.2 63.72C60.6693 64.2747 61.3093 64.552 62.12 64.552ZM68.4528 68.808L70.2768 64.568L70.5648 64.12L73.2368 57.368H74.5487L69.8128 68.808H68.4528ZM70.4208 65.608L66.7568 57.368H68.1648L71.3168 64.744L70.4208 65.608Z" fill="black"/>
<g clip-path="url(#clip1_52_3)">
<path d="M80 57.4095L90.3011 55.5493V58.2551L80 60.1153V57.4095Z" fill="#FF391F"/>
<path d="M80 60.053L90.3011 58.1928V60.8985L80 62.7588V60.053Z" fill="#FF6200"/>
<path d="M80 62.6965L90.3011 60.8362V63.542L80 65.4023V62.6965Z" fill="#FF9D00"/>
<mask id="mask0_52_3" style="mask-type:luminance" maskUnits="userSpaceOnUse" x="92" y="54" width="37" height="13">
<path d="M129 54.528H92.1878V66.528H129V54.528Z" fill="white"/>
</mask>
<g mask="url(#mask0_52_3)">
<path d="M96.4381 66.4402C95.536 66.4402 94.8781 66.2332 94.4642 65.8192C94.0609 65.3944 93.8593 64.7843 93.8593 63.9891V56.015L95.1328 55.5248V63.9728C95.1328 64.4412 95.2495 64.7843 95.483 65.0022C95.7165 65.2201 96.0985 65.329 96.6291 65.329C96.8414 65.329 97.0218 65.3181 97.1704 65.2963C97.3296 65.2637 97.4569 65.2255 97.5524 65.182V66.2931C97.4463 66.3367 97.2924 66.3694 97.0908 66.3911C96.8998 66.4238 96.6822 66.4402 96.4381 66.4402ZM92.1878 59.0706V57.9595H97.5524V59.0706H92.1878ZM101.119 66.4565C100.589 66.4565 100.116 66.3476 99.7026 66.1297C99.2887 65.9009 98.965 65.585 98.7315 65.182C98.4981 64.768 98.3813 64.2941 98.3813 63.7603V57.9595H99.6548V63.4172C99.6548 64.049 99.8034 64.5229 100.101 64.8388C100.408 65.1547 100.843 65.3127 101.406 65.3127C101.915 65.3127 102.366 65.1929 102.759 64.9532C103.152 64.7135 103.459 64.3813 103.682 63.9564C103.916 63.5207 104.032 63.025 104.032 62.4694L104.239 64.4466C103.974 65.0676 103.56 65.5578 102.998 65.9173C102.435 66.2768 101.809 66.4565 101.119 66.4565ZM104.112 66.2931V64.3323H104.032V57.9595H105.306V66.2931H104.112ZM107.214 66.2931V57.9595H108.408V60.0837H108.488V66.2931H107.214ZM108.488 61.9466L108.281 59.9694C108.472 59.2613 108.811 58.7221 109.299 58.3517C109.788 57.9813 110.35 57.7961 110.987 57.7961C111.252 57.7961 111.433 57.8179 111.528 57.8614V59.1197C111.475 59.0979 111.401 59.087 111.305 59.087C111.21 59.0761 111.093 59.0706 110.955 59.0706C110.148 59.0706 109.533 59.3212 109.108 59.8223C108.695 60.3125 108.488 61.0206 108.488 61.9466ZM116.558 66.4402C115.794 66.4402 115.152 66.2495 114.632 65.8683C114.112 65.487 113.757 64.9478 113.566 64.2506L113.741 64.2179V66.2931H112.547V54.528H113.82V59.904L113.645 59.855C113.847 59.2123 114.213 58.7111 114.744 58.3517C115.285 57.9813 115.927 57.7961 116.67 57.7961C117.391 57.7961 118.018 57.9758 118.548 58.3353C119.09 58.6948 119.509 59.1959 119.806 59.8386C120.103 60.4814 120.252 61.233 120.252 62.0936C120.252 62.9651 120.098 63.7277 119.79 64.3813C119.482 65.0349 119.052 65.5414 118.501 65.9009C117.949 66.2604 117.301 66.4402 116.558 66.4402ZM116.367 65.2963C117.174 65.2963 117.805 65.0131 118.262 64.4466C118.718 63.8693 118.946 63.0849 118.946 62.0936C118.946 61.1132 118.718 60.3452 118.262 59.7896C117.805 59.2231 117.174 58.9399 116.367 58.9399C115.561 58.9399 114.924 59.2286 114.457 59.806C113.99 60.3724 113.757 61.1513 113.757 62.1426C113.757 63.1122 113.99 63.8802 114.457 64.4466C114.924 65.0131 115.561 65.2963 116.367 65.2963ZM124.939 66.4565C124.143 66.4565 123.443 66.2659 122.838 65.8846C122.233 65.5033 121.76 64.9859 121.421 64.3323C121.092 63.6677 120.927 62.9215 120.927 62.0936C120.927 61.2548 121.097 60.514 121.437 59.8713C121.776 59.2286 122.243 58.7221 122.838 58.3517C123.443 57.9813 124.143 57.7961 124.939 57.7961C125.745 57.7961 126.446 57.9813 127.04 58.3517C127.645 58.7221 128.112 59.2286 128.441 59.8713C128.781 60.514 128.95 61.2548 128.95 62.0936C128.95 62.9215 128.781 63.6677 128.441 64.3323C128.112 64.9859 127.645 65.5033 127.04 65.8846C126.446 66.2659 125.745 66.4565 124.939 66.4565ZM124.939 65.3454C125.491 65.3454 125.968 65.2092 126.372 64.9369C126.775 64.6536 127.088 64.2669 127.311 63.7767C127.534 63.2865 127.645 62.72 127.645 62.0773C127.645 61.1186 127.396 60.3506 126.897 59.7733C126.409 59.1959 125.756 58.9072 124.939 58.9072C124.132 58.9072 123.48 59.1959 122.981 59.7733C122.482 60.3506 122.233 61.1186 122.233 62.0773C122.233 62.72 122.344 63.2865 122.567 63.7767C122.79 64.2669 123.103 64.6536 123.506 64.9369C123.92 65.2092 124.398 65.3454 124.939 65.3454Z" fill="black"/>
</g>
</g>
<defs>
<clipPath id="clip0_52_3">
<rect width="46" height="46" fill="white" transform="translate(0 0.528)"/>
</clipPath>
<clipPath id="clip1_52_3">
<rect width="49" height="12" fill="white" transform="translate(80 54.528)"/>
</clipPath>
</defs>
</svg>
