<svg width="22" height="22" viewBox="0 0 22 22" fill="none" xmlns="http://www.w3.org/2000/svg">
<path d="M11 0C17.0751 0 22 4.92487 22 11C22 17.0751 17.0751 22 11 22C4.92487 22 0 17.0751 0 11C0 4.92487 4.92487 0 11 0ZM11 14.8496C10.0887 14.8496 9.34961 15.5887 9.34961 16.5C9.34962 17.4113 10.0887 18.1504 11 18.1504C11.9113 18.1504 12.6504 17.4113 12.6504 16.5C12.6504 15.5887 11.9113 14.8496 11 14.8496ZM11 3.2998C10.0887 3.29981 9.34961 4.03893 9.34961 4.9502V12.0996C9.34961 13.0109 10.0887 13.75 11 13.75C11.9113 13.75 12.6504 13.0109 12.6504 12.0996V4.9502C12.6504 4.03893 11.9113 3.2998 11 3.2998Z" fill="#FF0000"/>
</svg>
