<svg width="40" height="40" viewBox="0 0 40 40" fill="none" xmlns="http://www.w3.org/2000/svg">
<path d="M20 0C31.0457 0 40 8.95431 40 20C40 31.0457 31.0457 40 20 40C8.95431 40 0 31.0457 0 20C0 8.95431 8.95431 0 20 0ZM20 27C18.3431 27 17 28.3431 17 30C17 31.6569 18.3431 33 20 33C21.6569 33 23 31.6569 23 30C23 28.3431 21.6569 27 20 27ZM20 6C18.3431 6 17 7.34315 17 9V22C17 23.6569 18.3431 25 20 25C21.6569 25 23 23.6569 23 22V9C23 7.34315 21.6569 6 20 6Z" fill="url(#paint0_linear_95_24)"/>
<defs>
<linearGradient id="paint0_linear_95_24" x1="20" y1="0" x2="20" y2="40" gradientUnits="userSpaceOnUse">
<stop stop-color="#FF3C3C"/>
<stop offset="1" stop-color="#FF8000"/>
</linearGradient>
</defs>
</svg>
