<svg width="90" height="23" viewBox="0 0 90 23" fill="none" xmlns="http://www.w3.org/2000/svg">
<path d="M26.9691 22.6879V6.77205H29.932V10.517H30.0816V22.6879H26.9691ZM37.8031 22.6879V12.4518C37.8031 11.3492 37.5337 10.5274 36.995 9.98643C36.4763 9.4455 35.6981 9.17503 34.6606 9.17503C33.7628 9.17503 32.9647 9.38309 32.2664 9.79919C31.588 10.2153 31.0493 10.7874 30.6502 11.5156C30.2711 12.2438 30.0816 13.1072 30.0816 14.1058L29.6925 10.2985C30.1913 9.11262 30.9595 8.17639 31.997 7.48982C33.0345 6.80326 34.2416 6.45997 35.6183 6.45997C37.2544 6.45997 38.5413 6.93849 39.4791 7.89552C40.4168 8.85256 40.8857 10.1217 40.8857 11.7028V22.6879H37.8031Z" fill="black"/>
<path d="M45.0604 22.6879V6.77205H48.173V22.6879H45.0604ZM44.9108 3.65129V0H48.3525V3.65129H44.9108Z" fill="black"/>
<path d="M58.92 23C57.1443 23 55.8374 22.5735 54.9994 21.7205C54.1814 20.8467 53.7724 19.5672 53.7724 17.882V3.12076L56.855 1.90366V17.9132C56.855 18.7454 57.0645 19.3591 57.4835 19.7544C57.9024 20.1497 58.5808 20.3474 59.5186 20.3474C59.8777 20.3474 60.1969 20.3161 60.4763 20.2537C60.7556 20.1913 60.995 20.1185 61.1945 20.0353V22.6567C60.9751 22.7607 60.6658 22.844 60.2668 22.9064C59.8677 22.9688 59.4188 23 58.92 23ZM50.7197 9.36228V6.77205H61.1945V9.36228H50.7197Z" fill="black"/>
<path d="M64.1455 22.6879V6.77205H67.1084V10.7354H67.2581V22.6879H64.1455ZM67.2581 14.3867L66.869 10.6106C67.2281 9.25825 67.8466 8.2284 68.7245 7.52103C69.6024 6.81366 70.6499 6.45997 71.867 6.45997C72.3259 6.45997 72.6451 6.50158 72.8247 6.5848V9.64315C72.7249 9.60154 72.5853 9.58073 72.4057 9.58073C72.2261 9.55993 72.0067 9.54953 71.7473 9.54953C70.2509 9.54953 69.1236 9.95522 68.3654 10.7666C67.6272 11.578 67.2581 12.7847 67.2581 14.3867Z" fill="black"/>
<path d="M82.1588 23C80.6025 23 79.2358 22.6463 78.0586 21.9389C76.8815 21.2108 75.9637 20.2225 75.3052 18.9742C74.6468 17.7051 74.3176 16.2696 74.3176 14.6676C74.3176 13.0448 74.6468 11.6196 75.3052 10.3921C75.9836 9.16463 76.9014 8.2076 78.0586 7.52103C79.2358 6.81366 80.6025 6.45997 82.1588 6.45997C83.735 6.45997 85.1117 6.81366 86.2889 7.52103C87.4661 8.2076 88.3739 9.16463 89.0124 10.3921C89.6708 11.6196 90 13.0448 90 14.6676C90 16.2696 89.6708 17.7051 89.0124 18.9742C88.3739 20.2225 87.4661 21.2108 86.2889 21.9389C85.1117 22.6463 83.735 23 82.1588 23ZM82.1588 20.3474C83.0966 20.3474 83.9046 20.1081 84.583 19.6296C85.2813 19.1511 85.83 18.4853 86.229 17.6323C86.6281 16.7793 86.8276 15.7806 86.8276 14.6364C86.8276 12.9303 86.3887 11.5884 85.5108 10.6106C84.6528 9.61194 83.5355 9.11262 82.1588 9.11262C80.8021 9.11262 79.6847 9.61194 78.8068 10.6106C77.9489 11.6092 77.5199 12.9512 77.5199 14.6364C77.5199 15.7806 77.7095 16.7793 78.0886 17.6323C78.4876 18.4853 79.0363 19.1511 79.7346 19.6296C80.4529 20.1081 81.261 20.3474 82.1588 20.3474Z" fill="black"/>
<path d="M20.3133 11.4701C21.008 11.4701 21.5788 12.0593 21.4982 12.7788C21.3826 13.8108 21.1306 14.8233 20.7478 15.787C20.2041 17.1557 19.4072 18.3992 18.4026 19.4468C17.398 20.4943 16.2054 21.3252 14.8929 21.8922C13.9686 22.2913 12.9977 22.5541 12.0081 22.6747C11.318 22.7588 10.7529 22.1636 10.7529 21.4392V12.7818C10.7529 12.0573 11.3161 11.4701 12.0108 11.4701H20.3133Z" fill="#FF0000"/>
<path d="M1.1925 11.4701C0.497758 11.4701 -0.0729931 10.8808 0.00761079 10.1612C0.12321 9.1293 0.375217 8.11685 0.758053 7.15306C1.30173 5.78441 2.0986 4.54082 3.10318 3.49329C4.10775 2.44578 5.30036 1.61483 6.61291 1.04792C7.53718 0.648721 8.50813 0.385941 9.49776 0.265401C10.1878 0.181351 10.7529 0.776501 10.7529 1.50094L10.7529 10.1583C10.7529 10.8827 10.1897 11.4701 9.49493 11.4701H1.1925Z" fill="#FF7700"/>
</svg>
