<svg width="27" height="28" viewBox="0 0 27 28" fill="none" xmlns="http://www.w3.org/2000/svg">
<path d="M9.92207 26.8027H2C1.44772 26.8027 1 26.355 1 25.8027V10.0297C1 9.70305 1.15949 9.39703 1.42721 9.20995L12.9181 1.18029C13.2621 0.939888 13.7197 0.939888 14.0637 1.18029L25.5546 9.20996C25.8223 9.39703 25.9818 9.70305 25.9818 10.0297V25.8027C25.9818 26.355 25.5341 26.8027 24.9818 26.8027H17.0597M9.92207 26.8027V18.2611C9.92207 17.7088 10.3698 17.2611 10.9221 17.2611H16.0597C16.612 17.2611 17.0597 17.7088 17.0597 18.2611V26.8027M9.92207 26.8027H17.0597" stroke="black" stroke-width="2"/>
</svg>
