<svg width="60" height="60" viewBox="0 0 60 60" fill="none" xmlns="http://www.w3.org/2000/svg">
<g clip-path="url(#clip0_135_181)">
<path d="M10.325 18.025H15.1975V30.81C15.1975 33.01 14.2525 37.6225 7.4925 37.6225C0.7325 37.625 0 33.3275 0 30.9175V28.5575H4.715V30.865C4.715 32.2775 5.66 33.59 7.44 33.59C9.2225 33.59 10.3225 32.5925 10.3225 30.915L10.325 18.025ZM20.855 28.875C20.855 27.4575 21.43 26.305 23.055 26.305C24.7325 26.305 25.465 27.5625 25.465 28.8725H20.855V28.875ZM22.7425 23.37C18.2875 23.37 16.295 27.4575 16.295 30.97C16.295 34.48 18.55 37.885 23.16 37.885C27.195 37.9375 29.8675 35.3175 29.8675 33.38H25.4125C25.4125 33.38 24.8875 34.635 23.3175 34.635C21.745 34.635 20.855 33.745 20.855 31.5975H29.92C29.92 24.8375 26.5675 23.3725 22.7425 23.3725M35.4225 28.8725C35.4225 27.4575 35.9975 26.305 37.6225 26.305C39.3 26.305 40.0325 27.5625 40.0325 28.8725H35.425H35.4225ZM37.3075 23.3725C32.855 23.3725 30.8625 27.4575 30.8625 30.9675C30.8625 34.48 33.1175 37.885 37.7275 37.885C41.7625 37.9375 44.435 35.3175 44.435 33.38H39.98C39.98 33.38 39.455 34.635 37.885 34.635C36.315 34.635 35.42 33.745 35.42 31.5975H44.485C44.485 24.8375 41.1325 23.3725 37.3075 23.3725ZM50.085 30.81C50.14 28.14 51.1875 27.04 52.6025 27.04C54.9075 27.04 55.3275 28.82 55.3275 30.655C55.3275 32.4875 55.0125 34.8975 52.8125 34.8975C50.6125 34.8975 50.035 33.485 50.085 30.81ZM50.1925 41.9725V36.365C50.38 36.615 50.4875 36.735 50.82 36.995C51.345 37.4025 52.235 38.095 54.2275 38.095C57.8425 38.095 59.9375 34.9525 59.9375 30.655C59.9375 25.1 56.4275 23.53 54.175 23.53C51.9225 23.53 51.075 24.575 50.77 24.9425C50.4175 25.3675 50.3025 25.6075 50.14 25.955V23.895H45.6325V41.9725H50.1925ZM58.1075 39.8775V41.3575H58.3675V40.7725H58.5725C58.7125 40.7725 58.81 40.79 58.865 40.8225C58.9575 40.8775 59.0025 40.99 59.0025 41.16V41.2775L59.0075 41.3275L59.0125 41.3425L59.015 41.3575H59.26L59.25 41.34C59.2409 41.2779 59.2359 41.2153 59.235 41.1525V41.0425C59.235 40.9675 59.2075 40.8925 59.155 40.8125C59.1245 40.772 59.0859 40.7383 59.0415 40.7138C58.9971 40.6892 58.948 40.6743 58.8975 40.67C58.9732 40.6601 59.0463 40.6355 59.1125 40.5975C59.21 40.535 59.2575 40.4375 59.2575 40.305C59.2575 40.12 59.1825 39.995 59.03 39.93C58.8991 39.8891 58.7619 39.8722 58.625 39.88L58.1075 39.8775ZM58.905 40.11C58.97 40.1475 59.005 40.22 59.005 40.3275C59.005 40.4425 58.9525 40.5175 58.85 40.5575C58.7703 40.5839 58.6864 40.5958 58.6025 40.5925H58.3675V40.055H58.5925C58.735 40.055 58.84 40.075 58.905 40.11ZM59.605 41.5775C59.7326 41.4532 59.8334 41.3042 59.9014 41.1396C59.9693 40.9749 60.0028 40.7981 60 40.62C60.0026 40.4431 59.9688 40.2675 59.9009 40.1041C59.833 39.9407 59.7323 39.793 59.605 39.67C59.4809 39.5431 59.3322 39.4428 59.168 39.3753C59.0038 39.3078 58.8275 39.2745 58.65 39.2775C58.4732 39.2746 58.2978 39.308 58.1344 39.3755C57.971 39.443 57.8232 39.5432 57.7 39.67C57.5732 39.7932 57.473 39.941 57.4055 40.1044C57.338 40.2678 57.3046 40.4433 57.3075 40.62C57.3075 40.995 57.4375 41.315 57.6975 41.5775C57.8204 41.7057 57.9685 41.8071 58.1324 41.8755C58.2962 41.9439 58.4724 41.9778 58.65 41.975C58.8281 41.9773 59.0048 41.943 59.169 41.8742C59.3333 41.8054 59.4817 41.7036 59.605 41.575M57.83 39.8C58.0575 39.575 58.33 39.46 58.65 39.46C58.97 39.46 59.245 39.5725 59.47 39.8C59.695 40.025 59.8075 40.3 59.8075 40.62C59.8075 40.945 59.695 41.22 59.4725 41.445C59.3665 41.5558 59.2387 41.6435 59.0971 41.7024C58.9556 41.7614 58.8033 41.7903 58.65 41.7875C58.4973 41.7905 58.3456 41.7618 58.2044 41.7033C58.0633 41.6448 57.9358 41.5577 57.83 41.4475C57.7214 41.3397 57.6358 41.211 57.5782 41.0692C57.5207 40.9275 57.4923 40.7755 57.495 40.6225C57.4924 40.4697 57.521 40.3179 57.5791 40.1765C57.6371 40.0351 57.7208 39.907 57.83 39.8Z" fill="white"/>
</g>
<defs>
<clipPath id="clip0_135_181">
<rect width="60" height="60" fill="white"/>
</clipPath>
</defs>
</svg>
